<svg width="100" height="101" viewBox="0 0 100 101" fill="none" xmlns="http://www.w3.org/2000/svg">
<g clip-path="url(#clip0_21_238)">
<path fill-rule="evenodd" clip-rule="evenodd" d="M35.0625 0.599976C24.8666 0.599976 16.6666 9.15414 16.6666 19.6333C16.6666 26.0041 19.7 31.6625 24.3625 35.1166C21.9595 36.917 20.0117 39.2553 18.6752 41.9441C17.3388 44.6329 16.6509 47.5974 16.6666 50.6C16.6666 56.975 19.7 62.6291 24.3625 66.0833C21.9595 67.8837 20.0117 70.222 18.6752 72.9108C17.3388 75.5996 16.6509 78.5641 16.6666 81.5666C16.6666 92.0458 24.8666 100.6 35.0625 100.6C45.2541 100.6 53.4583 92.0458 53.4583 81.5666V65.475C56.6805 68.1616 60.7422 69.6344 64.9375 69.6375C75.1333 69.6333 83.3333 61.0791 83.3333 50.6C83.35 47.5972 82.6626 44.6324 81.326 41.9434C79.9895 39.2545 78.0412 36.9163 75.6375 35.1166C78.0405 33.3163 79.9883 30.978 81.3247 28.2892C82.6612 25.6004 83.3491 22.6359 83.3333 19.6333C83.3333 9.15414 75.1333 0.599976 64.9375 0.599976H35.0625ZM23.5791 19.6333C23.5791 13.0041 28.7541 7.69581 35.0625 7.69581H46.5416V31.5708H35.0625C28.7541 31.5708 23.5791 26.2583 23.5791 19.6333ZM64.9375 31.5666H53.4583V7.69164H64.9375C71.25 7.69164 76.4208 13.0041 76.4208 19.6333C76.4208 26.2583 71.25 31.5666 64.9375 31.5666ZM23.5833 50.6C23.5833 43.975 28.7583 38.6625 35.0666 38.6625H46.5458V62.5375H35.0625C28.75 62.5375 23.5791 57.225 23.5791 50.6H23.5833ZM53.4583 50.6C53.4583 43.975 58.6333 38.6625 64.9416 38.6625C71.2541 38.6625 76.425 43.9708 76.425 50.6C76.425 57.225 71.2541 62.5375 64.9416 62.5375C58.6333 62.5375 53.4625 57.2291 53.4625 50.6H53.4583ZM23.5833 81.5666C23.5833 74.9416 28.7583 69.6333 35.0666 69.6333H46.5458V81.5666C46.5458 88.1958 41.3791 93.5041 35.0666 93.5041C28.7583 93.5041 23.5833 88.1958 23.5833 81.5666Z" fill="white"/>
</g>
<defs>
<clipPath id="clip0_21_238">
<rect width="100" height="100" fill="white" transform="translate(0 0.599976)"/>
</clipPath>
</defs>
</svg>
