<svg width="100" height="101" viewBox="0 0 100 101" fill="none" xmlns="http://www.w3.org/2000/svg">
<g clip-path="url(#clip0_21_219)">
<path d="M50 0.599976C22.375 0.599976 0 22.975 0 50.6C0 72.725 14.3125 91.4125 34.1875 98.0375C36.6875 98.475 37.625 96.975 37.625 95.6625C37.625 94.475 37.5625 90.5375 37.5625 86.35C25 88.6625 21.75 83.2875 20.75 80.475C20.1875 79.0375 17.75 74.6 15.625 73.4125C13.875 72.475 11.375 70.1625 15.5625 70.1C19.5 70.0375 22.3125 73.725 23.25 75.225C27.75 82.7875 34.9375 80.6625 37.8125 79.35C38.25 76.1 39.5625 73.9125 41 72.6625C29.875 71.4125 18.25 67.1 18.25 47.975C18.25 42.5375 20.1875 38.0375 23.375 34.5375C22.875 33.2875 21.125 28.1625 23.875 21.2875C23.875 21.2875 28.0625 19.975 37.625 26.4125C41.625 25.2875 45.875 24.725 50.125 24.725C54.375 24.725 58.625 25.2875 62.625 26.4125C72.1875 19.9125 76.375 21.2875 76.375 21.2875C79.125 28.1625 77.375 33.2875 76.875 34.5375C80.0625 38.0375 82 42.475 82 47.975C82 67.1625 70.3125 71.4125 59.1875 72.6625C61 74.225 62.5625 77.225 62.5625 81.9125C62.5625 88.6 62.5 93.975 62.5 95.6625C62.5 96.975 63.4375 98.5375 65.9375 98.0375C75.8639 94.6874 84.4896 88.3084 90.6002 79.7985C96.7107 71.2886 99.9983 61.0765 100 50.6C100 22.975 77.625 0.599976 50 0.599976Z" fill="white"/>
</g>
<defs>
<clipPath id="clip0_21_219">
<rect width="100" height="100" fill="white" transform="translate(0 0.599976)"/>
</clipPath>
</defs>
</svg>
