<svg width="24" height="24" viewBox="0 0 24 24" fill="none" xmlns="http://www.w3.org/2000/svg">
<path d="M23.56 14.723C23.5461 14.6808 23.527 14.6404 23.503 14.603C23.364 14.341 23.026 14.262 22.496 14.372C20.842 14.712 20.202 14.502 19.97 14.352C21.312 12.304 22.415 9.83 23.011 7.522C23.283 6.472 23.809 3.999 23.133 2.792C23.0901 2.70901 23.0399 2.63003 22.983 2.556C21.692 0.910002 19.8 0.0250021 17.51 0.00100212C16.015 -0.0149979 14.74 0.347002 14.394 0.480002C14.2228 0.447918 14.0507 0.420574 13.878 0.398002C13.4449 0.319848 13.0061 0.277372 12.566 0.271002C11.384 0.252002 10.363 0.535002 9.51599 1.111C8.65999 0.790002 4.72899 -0.533998 2.29599 1.19C0.934989 2.153 0.308989 3.873 0.429989 6.304C0.470989 7.122 0.936989 9.638 1.67299 12.048C2.13299 13.554 2.61099 14.75 3.10599 15.63C3.65899 16.624 4.23199 17.223 4.81999 17.42C5.26799 17.568 5.95299 17.563 6.67799 16.691C7.30689 15.9388 7.95545 15.2032 8.62299 14.485C9.05799 14.72 9.52899 14.847 10.013 14.862C10.0129 14.8633 10.0129 14.8647 10.013 14.866C9.92885 14.9662 9.84651 15.0679 9.76599 15.171C9.42699 15.601 9.35599 15.691 8.26599 15.916C7.95599 15.98 7.13199 16.149 7.11999 16.727C7.1177 16.8426 7.14933 16.9562 7.21099 17.054C7.43799 17.477 8.13299 17.664 8.22599 17.687C9.56099 18.02 10.731 17.779 11.598 17.008C11.581 19.239 11.675 21.426 11.943 22.096C12.164 22.649 12.705 24 14.413 24C14.663 24 14.939 23.97 15.242 23.906C17.024 23.524 17.798 22.736 18.097 21C18.247 20.13 18.499 18.125 18.636 16.899C18.653 16.829 18.672 16.779 18.693 16.763C18.693 16.763 18.763 16.715 19.12 16.793C19.1345 16.7962 19.1492 16.7986 19.164 16.8L19.418 16.822L19.433 16.823C20.28 16.862 21.344 16.681 21.964 16.393C22.608 16.093 23.77 15.36 23.559 14.723H23.56ZM2.36999 11.876C1.62599 9.441 1.19199 6.991 1.15799 6.305C1.04899 4.133 1.57499 2.622 2.71999 1.812C4.55699 0.513002 7.55999 1.272 8.82799 1.682L8.81799 1.692C6.79499 3.734 6.84299 7.226 6.84999 7.44C6.84999 7.522 6.85599 7.639 6.86599 7.8C6.89999 8.386 6.96599 9.48 6.79199 10.718C6.63199 11.868 6.98599 12.994 7.76499 13.807C7.84499 13.891 7.92999 13.97 8.01699 14.044C7.66999 14.415 6.91699 15.237 6.11399 16.202C5.54599 16.884 5.15399 16.753 5.02599 16.71C4.63399 16.58 4.21299 16.123 3.78699 15.388C3.30699 14.549 2.82399 13.356 2.37199 11.876H2.36999ZM8.37699 16.964C8.22517 16.9258 8.07967 16.8658 7.94499 16.786C8.03399 16.747 8.18199 16.696 8.42799 16.646C9.71199 16.381 9.90999 16.195 10.343 15.646C10.4596 15.4937 10.5821 15.3459 10.71 15.203C10.7436 15.1654 10.7688 15.1211 10.784 15.073C10.954 14.922 11.056 14.963 11.22 15.031C11.376 15.096 11.528 15.291 11.59 15.506C11.62 15.608 11.652 15.801 11.545 15.951C10.641 17.217 9.32299 17.201 8.37699 16.964ZM10.471 12.976L10.419 13.116C10.286 13.473 10.162 13.805 10.085 14.12C9.41799 14.118 8.76799 13.832 8.27499 13.317C7.64699 12.662 7.36199 11.751 7.49199 10.817C7.67499 9.509 7.60799 8.37 7.57199 7.758L7.55899 7.538C7.85499 7.276 9.22499 6.542 10.202 6.766C10.648 6.868 10.92 7.172 11.032 7.694C11.617 10.398 11.11 11.524 10.702 12.43C10.6192 12.6094 10.5425 12.7915 10.472 12.976H10.471ZM17.835 17.548C17.818 17.725 17.799 17.924 17.773 18.144L17.627 18.582C17.6154 18.6169 17.6094 18.6533 17.609 18.69C17.603 19.165 17.555 19.339 17.494 19.56C17.3947 19.9045 17.3343 20.2591 17.314 20.617C17.204 22.031 16.436 22.844 14.897 23.173C13.382 23.498 13.113 22.677 12.877 21.952C12.8524 21.8759 12.8264 21.8002 12.799 21.725C12.584 21.139 12.609 20.313 12.642 19.17C12.658 18.609 12.617 17.269 12.312 16.524C12.316 16.231 12.322 15.933 12.331 15.632C12.3318 15.5937 12.3264 15.5556 12.315 15.519C12.3053 15.4487 12.2906 15.3792 12.271 15.311C12.149 14.883 11.851 14.525 11.491 14.376C11.349 14.317 11.088 14.209 10.774 14.289C10.841 14.013 10.957 13.702 11.083 13.364L11.136 13.222C11.196 13.062 11.27 12.897 11.349 12.722C11.775 11.774 12.359 10.476 11.725 7.544C11.488 6.446 10.695 5.91 9.49299 6.034C8.77299 6.109 8.11299 6.4 7.78399 6.566C7.71798 6.59939 7.65264 6.63406 7.58799 6.67C7.67999 5.564 8.02699 3.496 9.32399 2.188C9.42024 2.09092 9.52137 1.9988 9.62699 1.912C9.67955 1.90194 9.72913 1.88005 9.77199 1.848C10.524 1.278 11.467 0.998002 12.574 1.015C12.984 1.022 13.376 1.049 13.748 1.096C15.688 1.451 16.992 2.543 17.784 3.479C18.598 4.441 19.039 5.41 19.215 5.933C17.892 5.799 16.992 6.06 16.535 6.713C15.543 8.131 17.079 10.885 17.817 12.209C17.952 12.451 18.069 12.661 18.106 12.749C18.346 13.332 18.657 13.721 18.884 14.005C18.954 14.092 19.022 14.176 19.073 14.25C18.673 14.366 17.953 14.633 18.018 15.967C17.9932 16.239 17.9652 16.5107 17.934 16.782C17.888 16.99 17.864 17.242 17.834 17.548H17.835ZM18.725 15.927C18.685 15.095 18.995 15.008 19.322 14.917C19.3673 14.9044 19.4123 14.8908 19.457 14.876C19.4992 14.9134 19.544 14.9479 19.591 14.979C20.161 15.355 21.174 15.4 22.598 15.113C22.396 15.29 22.079 15.513 21.645 15.714C21.235 15.904 20.549 16.047 19.898 16.078C19.178 16.112 18.812 15.998 18.725 15.927V15.927ZM19.295 6.656C19.2832 6.9917 19.2481 7.32617 19.19 7.657C19.135 8.015 19.078 8.385 19.063 8.834C19.049 9.27 19.103 9.724 19.156 10.164C19.263 11.051 19.372 11.964 18.949 12.865C18.8786 12.7406 18.8158 12.612 18.761 12.48C18.6622 12.2695 18.5537 12.0636 18.436 11.863C17.82 10.759 16.379 8.173 17.116 7.119C17.496 6.576 18.458 6.553 19.295 6.656V6.656ZM19.523 13.669C19.4949 13.6332 19.4665 13.5975 19.438 13.562L19.403 13.518C20.129 12.318 19.987 11.131 19.86 10.079C19.808 9.647 19.76 9.239 19.772 8.857C19.785 8.45 19.838 8.102 19.89 7.765C19.954 7.35 20.02 6.921 20.001 6.415C20.0158 6.35282 20.0199 6.28856 20.013 6.225C19.967 5.739 19.413 4.287 18.283 2.972C17.5465 2.10408 16.6291 1.4078 15.595 0.932002C16.2611 0.795777 16.9402 0.7334 17.62 0.746002C19.672 0.792002 21.295 1.56 22.444 3.029C22.4685 3.06082 22.4909 3.09422 22.511 3.129C23.234 4.485 22.235 9.404 19.524 13.669H19.523ZM10.707 7.553C10.682 7.733 10.397 7.976 10.086 7.976C10.0589 7.97589 10.0318 7.97389 10.005 7.97C9.80193 7.9344 9.62057 7.82149 9.49899 7.655C9.45299 7.595 9.37899 7.477 9.39299 7.37C9.3976 7.34016 9.40822 7.31157 9.4242 7.28596C9.44019 7.26035 9.46121 7.23825 9.48599 7.221C9.60399 7.132 9.83799 7.099 10.096 7.135C10.412 7.179 10.738 7.328 10.706 7.553H10.707ZM18.637 7.142C18.648 7.222 18.588 7.342 18.484 7.452C18.3763 7.56929 18.2329 7.64769 18.076 7.675C18.0511 7.67839 18.0261 7.68006 18.001 7.68C17.708 7.68 17.46 7.446 17.441 7.309C17.417 7.132 17.705 6.999 18.001 6.957C18.299 6.915 18.613 6.966 18.637 7.142V7.142Z" fill="white"/>
</svg>
