<svg width="20" height="20" viewBox="0 0 20 20" fill="none" xmlns="http://www.w3.org/2000/svg">
<path d="M9.5 7H6M6 7H3C1.4766 7.28724 1.09683 7.76384 1 9V13C1.44217 14.5894 1.99851 14.7479 3 15H6M6 7V3C6.20194 1.75738 6.63778 1.31943 8 1H12C13.2999 1.26224 13.7196 1.72351 14 3V5M6 15V17C6.37527 18.6291 6.93217 18.8205 8 19H12C13.4369 18.6187 13.7942 18.1315 14 17V13M6 15V12C6.27584 10.7161 6.71873 10.2797 8 10H12C13.1799 9.61884 13.6363 9.19862 14 8V5M14 13H17C18.3276 12.7685 18.7958 12.3549 19 11V7C18.8232 5.93417 18.5794 5.40492 17 5H14M14 13H10" stroke="white"/>
</svg>
