<svg width="100" height="101" viewBox="0 0 100 101" fill="none" xmlns="http://www.w3.org/2000/svg">
<path d="M50.0001 8.53333C41.7592 8.53333 33.7034 10.977 26.8513 15.5554C19.9993 20.1338 14.6587 26.6413 11.5051 34.2548C8.35143 41.8684 7.52629 50.2462 9.13401 58.3288C10.7417 66.4113 14.7101 73.8356 20.5373 79.6628C26.3645 85.49 33.7888 89.4583 41.8713 91.066C49.9538 92.6738 58.3316 91.8486 65.9452 88.695C73.5588 85.5413 80.0662 80.2008 84.6446 73.3487C89.223 66.4967 91.6667 58.4409 91.6667 50.2C91.6546 39.153 87.2608 28.562 79.4494 20.7506C71.6381 12.9392 61.047 8.54546 50.0001 8.53333ZM12.5417 50.2C12.5364 44.9451 13.641 39.7483 15.7834 34.95L33.6542 83.9125C27.324 80.8428 21.9861 76.0528 18.2516 70.0906C14.517 64.1285 12.5368 57.2352 12.5376 50.2H12.5417ZM50.0001 87.6583C46.4175 87.6589 42.8534 87.1453 39.4167 86.1333L50.6584 53.4708L62.1709 85.0208C62.2469 85.1988 62.3375 85.3702 62.4417 85.5333C58.445 86.9418 54.2378 87.6604 50.0001 87.6583ZM55.1626 32.6292C57.4167 32.5125 59.4542 32.275 59.4542 32.275C59.8504 32.2262 60.2125 32.0265 60.4651 31.7174C60.7176 31.4082 60.8412 31.0136 60.8101 30.6157C60.7789 30.2177 60.5954 29.8471 60.2979 29.5811C60.0003 29.315 59.6115 29.174 59.2126 29.1875C59.2126 29.1875 53.1417 29.6625 49.2251 29.6625C45.5459 29.6625 39.3584 29.1875 39.3584 29.1875C38.96 29.1755 38.5723 29.3174 38.2759 29.5838C37.9794 29.8502 37.7969 30.2205 37.7663 30.6179C37.7358 31.0153 37.8595 31.4092 38.1117 31.7178C38.3639 32.0264 38.7254 32.2259 39.1209 32.275C39.1209 32.275 41.0334 32.5125 43.0501 32.6292L48.8876 48.6208L40.6876 73.2083L27.0459 32.6292C29.3042 32.5125 31.3376 32.275 31.3376 32.275C31.7337 32.2262 32.0958 32.0265 32.3484 31.7174C32.601 31.4082 32.7245 31.0136 32.6934 30.6157C32.6622 30.2177 32.4788 29.8471 32.1812 29.5811C31.8836 29.315 31.4948 29.174 31.0959 29.1875C31.0959 29.1875 25.0292 29.6625 21.1126 29.6625C20.4084 29.6625 19.5792 29.6458 18.7001 29.6208C21.6787 25.0883 25.6062 21.2568 30.2111 18.3913C34.816 15.5258 39.9883 13.6948 45.3705 13.0247C50.7526 12.3547 56.216 12.8617 61.3829 14.5106C66.5498 16.1596 71.2969 18.9111 75.2959 22.575C75.1334 22.5625 74.9792 22.5417 74.8126 22.5417C73.0976 22.5929 71.4729 23.3214 70.2937 24.5676C69.1146 25.8139 68.4772 27.4765 68.5209 29.1917C68.9132 32.4041 70.1865 35.4455 72.2001 37.9792C74.1688 41.0701 75.2379 44.6482 75.2876 48.3125C74.8983 52.4604 73.9393 56.5348 72.4376 60.4208L68.7001 72.9042L55.1626 32.6292ZM68.8334 82.575L80.2751 49.4917C82.0914 45.2482 83.0596 40.6903 83.1251 36.075C83.1281 34.7861 83.0446 33.4985 82.8751 32.2208C87.5572 40.7889 88.7097 50.8463 86.087 60.2514C83.4643 69.6565 77.2737 77.6662 68.8334 82.575Z" fill="white"/>
</svg>
