<svg width="627" height="380" viewBox="0 0 627 380" fill="none" xmlns="http://www.w3.org/2000/svg">
<ellipse cx="277.453" cy="63.5" rx="40.1471" ry="37.5" transform="rotate(-180 277.453 63.5)" fill="#3159A8"/>
<path d="M248.012 38L313.84 117.5H182.184L248.012 38Z" fill="#3159A8"/>
<rect x="275.847" y="26" width="228.035" height="92" fill="#3159A8"/>
<ellipse cx="521.547" cy="80.5" rx="40.1471" ry="37.5" fill="#3159A8"/>
<path d="M550.988 106L485.16 26.5L616.816 26.5L550.988 106Z" fill="#3159A8"/>
<rect x="523.153" y="118" width="228.035" height="92" transform="rotate(-180 523.153 118)" fill="#3159A8"/>
<ellipse cx="105.453" cy="299.5" rx="40.1471" ry="37.5" transform="rotate(-180 105.453 299.5)" fill="white"/>
<path d="M76.0118 274L141.84 353.5H10.1836L76.0118 274Z" fill="white"/>
<rect x="103.847" y="262" width="228.035" height="92" fill="white"/>
<ellipse cx="349.547" cy="316.5" rx="40.1471" ry="37.5" fill="white"/>
<path d="M378.988 342L313.16 262.5H444.816L378.988 342Z" fill="white"/>
<rect x="351.153" y="354" width="228.035" height="92" transform="rotate(-180 351.153 354)" fill="white"/>
<circle cx="189.5" cy="181.5" r="37.5" transform="rotate(-180 189.5 181.5)" fill="#7BA0FF"/>
<path d="M162 156L223.488 235.5H100.512L162 156Z" fill="#7BA0FF"/>
<rect x="188" y="144" width="213" height="92" fill="#7BA0FF"/>
<circle cx="417.5" cy="198.5" r="37.5" fill="#7BA0FF"/>
<path d="M445 224L383.512 144.5H506.488L445 224Z" fill="#7BA0FF"/>
<rect x="419" y="236" width="213" height="92" transform="rotate(-180 419 236)" fill="#7BA0FF"/>
</svg>
