<svg width="226" height="81" viewBox="0 0 226 81" fill="none" xmlns="http://www.w3.org/2000/svg">
<path d="M42.608 5.79999V6.85999H9.218V38.66H40.17V39.72H9.218V78.94H44.94V80H0.42V5.79999H42.608ZM115.814 39.19C115.814 34.8793 115.249 31.8407 114.118 30.074C112.988 28.3073 110.832 27.424 107.652 27.424C103.412 27.424 99.6316 29.1907 96.3103 32.724C93.0596 36.2573 91.4343 39.4373 91.4343 42.264V80H84.0143V39.19C84.0143 34.8793 83.4489 31.8407 82.3183 30.074C81.1876 28.3073 78.7849 27.424 75.1103 27.424C71.4356 27.424 67.9376 29.12 64.6163 32.512C61.3656 35.904 59.5989 39.0487 59.3163 41.946V80H51.8963V27H59.3163V38.978C60.4469 35.9393 62.5316 33.1127 65.5703 30.498C68.6089 27.8833 72.0009 26.576 75.7463 26.576C79.4916 26.576 82.4596 26.9293 84.6503 27.636C86.9116 28.272 88.5016 29.2967 89.4203 30.71C90.3389 32.1233 90.9043 33.36 91.1163 34.42C91.3283 35.48 91.4343 36.964 91.4343 38.872C92.5649 35.8333 94.6143 33.042 97.5823 30.498C100.55 27.8833 103.73 26.576 107.122 26.576C110.514 26.576 113.235 26.8587 115.284 27.424C117.334 27.9893 118.853 28.6253 119.842 29.332C120.902 30.0387 121.68 31.0633 122.174 32.406C122.74 33.7487 123.058 34.844 123.128 35.692C123.199 36.54 123.234 37.7413 123.234 39.296V72.474C123.234 74.5233 123.623 76.1133 124.4 77.244C125.248 78.304 126.096 78.8693 126.944 78.94L128.11 79.152H131.396V80H124.93C122.033 80 119.807 79.364 118.252 78.092C116.768 76.82 115.991 75.548 115.92 74.276L115.814 72.474V39.19ZM145.417 80C142.52 80 140.294 79.364 138.739 78.092C137.255 76.82 136.478 75.548 136.407 74.276L136.301 72.474V27H143.721V72.474C143.721 74.5233 144.11 76.1133 144.887 77.244C145.735 78.304 146.548 78.8693 147.325 78.94L148.597 79.152H151.883V80H145.417ZM136.937 15.128C136.089 14.28 135.665 13.22 135.665 11.948C135.665 10.676 136.089 9.616 136.937 8.76799C137.785 7.84933 138.845 7.38999 140.117 7.38999C141.389 7.38999 142.449 7.84933 143.297 8.76799C144.216 9.616 144.675 10.676 144.675 11.948C144.675 13.22 144.216 14.28 143.297 15.128C142.449 15.976 141.389 16.4 140.117 16.4C138.845 16.4 137.785 15.976 136.937 15.128Z" fill="black"/>
<path d="M173.843 80C167.624 80 163.702 78.3747 162.077 75.124C161.723 74.4173 161.547 73.7813 161.547 73.216V0.605999H168.967V72.474C168.967 74.5233 169.355 76.1133 170.133 77.244C170.981 78.304 171.829 78.8693 172.677 78.94L173.843 79.152H177.129V80H173.843ZM187.05 54.136C187.05 62.8987 188.569 69.3293 191.608 73.428C194.717 77.5267 198.78 79.576 203.798 79.576C210.864 79.576 217.154 78.516 222.666 76.396L222.984 77.138C217.33 79.3287 210.935 80.424 203.798 80.424C196.731 80.424 190.972 78.304 186.52 74.064C182.068 69.824 179.842 63.2873 179.842 54.454C179.842 45.6207 182.174 38.766 186.838 33.89C191.502 29.014 197.438 26.576 204.646 26.576C210.44 26.576 215.316 28.3073 219.274 31.77C223.231 35.2327 225.21 40.356 225.21 47.14C225.21 47.4933 225.21 47.8467 225.21 48.2H187.368C187.156 50.108 187.05 52.0867 187.05 54.136ZM218.002 47.352C217.931 40.568 216.624 35.5507 214.08 32.3C211.536 29.0493 208.25 27.424 204.222 27.424C200.194 27.424 196.59 29.1907 193.41 32.724C190.3 36.2573 188.322 41.1333 187.474 47.352H218.002Z" fill="#67BEFD"/>
</svg>
