<svg width="100" height="100" viewBox="0 0 100 100" fill="none" xmlns="http://www.w3.org/2000/svg">
<g clip-path="url(#clip0_21_221)">
<path d="M88.2709 33.4374C92.7042 34.2374 96.325 34.8541 97.1542 36.7291C98.0834 38.8541 93.2542 38.9833 90.8209 39.0291C79.1542 39.2541 72.125 39.4874 71.7709 43.4499C71.3125 48.5499 76.7542 53.6916 82.1292 60.8916C87.0375 67.4624 92.6209 73.9541 91.0167 79.9999C89.0084 87.5374 79.7667 89.1333 70.975 89.1333C62.55 89.1333 54.5625 87.7874 51.2084 87.1249C47.0334 86.2916 47.6584 84.2333 48.7709 83.5708C50.0125 82.8291 57.1125 82.8124 62.05 82.5208C66.1125 82.2791 77.9042 82.2874 79.7417 79.2666C81.9917 75.5583 76.4792 69.2333 71.4084 62.5999C65.0792 54.3333 58.1334 45.7916 61.8125 39.5458C66.5625 31.4791 80.4958 32.0333 88.2709 33.4374ZM31.2292 45.7291C38.6125 45.2958 47.5875 46.5874 52.6208 50.4374C54.0383 51.5226 55.1032 53.0028 55.6815 54.6917C56.2598 56.3806 56.3257 58.2028 55.8709 59.9291C52.9625 71.3958 42.1042 85.2749 17.9833 95.9416C10.3125 99.3291 4.27501 100.629 3.01251 99.7166C1.65418 98.7416 5.61251 91.1666 6.80001 88.6583C10.6542 80.5249 15.4625 72.6041 20.1542 65.3458C21.8792 62.6791 24.55 58.0458 26.9625 58.4208C29.125 58.7541 26.5875 63.6708 24.9292 66.7958C22.1292 72.0458 14.4167 86.6291 16.9625 87.5041C22.5875 89.4291 48.9625 69.3624 45.0709 58.1874C43.2709 52.9999 31.8209 52.5083 24.6042 52.5083C21.325 52.5083 14.1542 53.2833 13.7583 50.7708C13.3333 48.4541 24.6458 46.1208 31.225 45.7291H31.2292ZM49.4459 0.0541098C58.0625 -0.354224 68.2542 1.47911 70.1542 7.56244C73.2667 17.5208 57.4875 32.0499 43.7458 39.1749C40.375 40.9249 38.3292 41.4083 37.4792 41.2874C36.6667 41.1749 36.5417 40.3708 36.8042 39.8083C37.2959 38.7583 39.5125 36.6249 42.475 34.2999C57.9542 22.2166 62.9875 13.3499 60.0625 9.75828C58.1875 7.45828 50.3459 5.85411 42.2 5.85411C39.9917 5.85411 34.1792 6.36661 33.5834 4.32494C33.0917 2.64161 40.8917 0.449943 49.4417 0.0499431" fill="white"/>
</g>
<defs>
<clipPath id="clip0_21_221">
<rect width="100" height="100" fill="white"/>
</clipPath>
</defs>
</svg>
