<svg width="94" height="101" viewBox="0 0 94 101" fill="none" xmlns="http://www.w3.org/2000/svg">
<g clip-path="url(#clip0_21_215)">
<path d="M30.2032 84.6866C30.2032 80.9663 27.134 79.1062 20.9956 79.1062C15.1176 79.1062 12.1786 81.0407 12.1786 84.9098C12.1786 88.6672 15.378 90.5459 21.7768 90.5459C27.3944 90.5459 30.2032 88.5928 30.2032 84.6866ZM26.9107 42.5549C26.9107 40.2855 26.3527 38.3882 25.2366 36.8629C24.1206 35.3376 22.4651 34.575 20.2701 34.575C15.657 34.575 13.3505 37.2721 13.3505 42.6665C13.3505 47.6888 15.657 50.2 20.2701 50.2C24.6972 50.2 26.9107 47.6516 26.9107 42.5549ZM41.9219 24.4745V35.7468C40.5826 36.1933 39.1131 36.6025 37.5134 36.9745C38.1087 38.5742 38.4063 40.1367 38.4063 41.662C38.4063 46.3867 37.0484 50.4139 34.3326 53.7435C31.6168 57.0731 27.9524 59.1657 23.3393 60.0214C21.8512 60.319 20.7445 60.8212 20.019 61.5281C19.2936 62.2349 18.9308 63.3138 18.9308 64.7647C18.9308 65.918 19.3494 66.8759 20.1864 67.6386C21.0235 68.4012 22.1023 68.9965 23.423 69.4243C24.7437 69.8521 26.2039 70.2613 27.8036 70.652C29.4033 71.0426 31.003 71.5169 32.6027 72.075C34.2024 72.633 35.6626 73.3305 36.9833 74.1676C38.304 75.0046 39.3828 76.1951 40.2199 77.739C41.057 79.2829 41.4755 81.1151 41.4755 83.2357C41.4755 94.5452 34.7232 100.2 21.2188 100.2C18.6518 100.2 16.2337 99.9674 13.9643 99.5024C11.695 99.0374 9.53724 98.2747 7.49111 97.2145C5.44498 96.1542 3.81737 94.6289 2.60829 92.6386C1.39922 90.6482 0.794678 88.2766 0.794678 85.5236C0.794678 79.3852 4.18009 75.2 10.9509 72.9678V72.7446C8.45837 71.2193 7.21209 68.8755 7.21209 65.7133C7.21209 61.6583 8.38396 59.1099 10.7277 58.0683V57.845C8.04914 56.9522 5.8263 54.934 4.05919 51.7904C2.29207 48.6468 1.40852 45.5683 1.40852 42.5549C1.40852 37.3837 3.17563 33.0776 6.70986 29.6363C10.2441 26.1951 14.6154 24.4745 19.8237 24.4745C23.3951 24.4745 26.7061 25.3488 29.7567 27.0973C33.4026 27.0973 37.4576 26.223 41.9219 24.4745ZM59.6674 73.6375H47.2791C47.4279 71.9633 47.5023 69.4708 47.5023 66.1598V32.1754C47.5023 28.6784 47.4279 26.2974 47.2791 25.0325H59.6674C59.5186 26.2602 59.4442 28.5668 59.4442 31.9522V66.1598C59.4442 69.4708 59.5186 71.9633 59.6674 73.6375ZM93.2054 61.2491V72.1866C90.564 73.6375 87.3274 74.3629 83.4956 74.3629C81.189 74.3629 79.1987 73.9909 77.5246 73.2468C75.8505 72.5028 74.5484 71.5727 73.6183 70.4566C72.6883 69.3406 71.9535 67.8897 71.4141 66.104C70.8747 64.3183 70.5305 62.6069 70.3817 60.97C70.2329 59.3331 70.1585 57.4172 70.1585 55.2223V35.6352H70.2701V35.412C70.0097 35.412 69.6563 35.3934 69.2099 35.3562C68.7634 35.319 68.4286 35.3004 68.2054 35.3004C67.4241 35.3004 66.3267 35.412 64.913 35.6352V25.0325H70.2701V20.7915C70.2701 18.7825 70.1585 17.127 69.9353 15.825H82.6027C82.3795 17.3502 82.2679 20.4194 82.2679 25.0325H91.8103V35.6352C91.2523 35.6352 90.4431 35.598 89.3828 35.5236C88.3226 35.4492 87.532 35.412 87.0112 35.412H82.2679V55.7803C82.2679 60.6538 83.8862 63.0906 87.1228 63.0906C89.3922 63.0906 91.4197 62.4767 93.2054 61.2491ZM61.0625 8.40308C61.0625 10.5608 60.3371 12.4488 58.8862 14.0671C57.4353 15.6854 55.6496 16.4946 53.5291 16.4946C51.3713 16.4946 49.5484 15.6854 48.0603 14.0671C46.5722 12.4488 45.8282 10.5608 45.8282 8.40308C45.8282 6.20814 46.5629 4.29221 48.0324 2.65531C49.5019 1.0184 51.3341 0.199951 53.5291 0.199951C55.6868 0.199951 57.4818 1.0277 58.9141 2.68321C60.3464 4.33872 61.0625 6.24534 61.0625 8.40308Z" fill="white"/>
</g>
<defs>
<clipPath id="clip0_21_215">
<rect width="92.8571" height="100" fill="white" transform="translate(0.571411 0.199951)"/>
</clipPath>
</defs>
</svg>
